<mxfile host="65bd71144e">
    <diagram id="XerL9CjwvU4i-z4wBgCY" name="Page-1">
        <mxGraphModel dx="722" dy="626" grid="1" gridSize="10" guides="1" tooltips="1" connect="1" arrows="1" fold="1" page="1" pageScale="1" pageWidth="827" pageHeight="1169" math="0" shadow="0">
            <root>
                <mxCell id="0"/>
                <mxCell id="1" parent="0"/>
                <mxCell id="27" value="资金流向图" style="swimlane;childLayout=stackLayout;resizeParent=1;resizeParentMax=0;startSize=20;html=1;" vertex="1" parent="1">
                    <mxGeometry x="190" y="70" width="450" height="430" as="geometry"/>
                </mxCell>
                <mxCell id="35" value="" style="edgeStyle=none;html=1;startArrow=classic;startFill=1;" edge="1" parent="27" source="34" target="31">
                    <mxGeometry relative="1" as="geometry"/>
                </mxCell>
                <mxCell id="28" value="中国登记结算公司" style="swimlane;startSize=20;html=1;" vertex="1" parent="27">
                    <mxGeometry y="20" width="140" height="410" as="geometry"/>
                </mxCell>
                <mxCell id="31" value="结算公司资金账户" style="whiteSpace=wrap;html=1;" vertex="1" parent="28">
                    <mxGeometry x="30" y="70" width="80" height="50" as="geometry"/>
                </mxCell>
                <mxCell id="29" value="证券公司" style="swimlane;startSize=20;html=1;" vertex="1" parent="27">
                    <mxGeometry x="140" y="20" width="160" height="410" as="geometry"/>
                </mxCell>
                <mxCell id="34" value="备付金账号" style="whiteSpace=wrap;html=1;" vertex="1" parent="29">
                    <mxGeometry x="30" y="70" width="100" height="50" as="geometry"/>
                </mxCell>
                <mxCell id="37" value="" style="edgeStyle=none;html=1;" edge="1" parent="29" source="36" target="34">
                    <mxGeometry relative="1" as="geometry"/>
                </mxCell>
                <mxCell id="62" value="" style="group" vertex="1" connectable="0" parent="29">
                    <mxGeometry x="30" y="160" width="100" height="210" as="geometry"/>
                </mxCell>
                <mxCell id="36" value="" style="whiteSpace=wrap;html=1;" vertex="1" parent="62">
                    <mxGeometry width="100" height="210" as="geometry"/>
                </mxCell>
                <mxCell id="56" value="&lt;font style=&quot;font-size: 10px;&quot;&gt;虚拟子户A&lt;/font&gt;" style="rounded=1;whiteSpace=wrap;html=1;" vertex="1" parent="62">
                    <mxGeometry y="50" width="100" height="30" as="geometry"/>
                </mxCell>
                <mxCell id="58" value="&lt;font style=&quot;font-size: 10px;&quot;&gt;虚拟子户B&lt;/font&gt;" style="rounded=1;whiteSpace=wrap;html=1;" vertex="1" parent="62">
                    <mxGeometry y="90" width="100" height="30" as="geometry"/>
                </mxCell>
                <mxCell id="59" value="虚拟子户C" style="rounded=1;whiteSpace=wrap;html=1;fontSize=10;" vertex="1" parent="62">
                    <mxGeometry y="130" width="100" height="30" as="geometry"/>
                </mxCell>
                <mxCell id="60" value="......" style="rounded=1;whiteSpace=wrap;html=1;fontSize=10;" vertex="1" parent="62">
                    <mxGeometry y="170" width="100" height="30" as="geometry"/>
                </mxCell>
                <mxCell id="61" value="&lt;b&gt;客户交易结算资金专用户&lt;/b&gt;" style="text;html=1;strokeColor=none;fillColor=none;align=center;verticalAlign=middle;whiteSpace=wrap;rounded=0;" vertex="1" parent="62">
                    <mxGeometry x="12.5" y="20" width="75" height="10" as="geometry"/>
                </mxCell>
                <mxCell id="30" value="投资人" style="swimlane;startSize=20;html=1;" vertex="1" parent="27">
                    <mxGeometry x="300" y="20" width="150" height="410" as="geometry"/>
                </mxCell>
                <mxCell id="65" value="&lt;span style=&quot;font-size: 12px;&quot;&gt;银行账户A&lt;/span&gt;" style="rounded=1;whiteSpace=wrap;html=1;fontSize=12;" vertex="1" parent="30">
                    <mxGeometry x="25.000000000000455" y="210" width="100" height="30" as="geometry"/>
                </mxCell>
                <mxCell id="66" value="&lt;span style=&quot;font-size: 12px;&quot;&gt;银行账户B&lt;/span&gt;" style="rounded=1;whiteSpace=wrap;html=1;fontSize=12;" vertex="1" parent="30">
                    <mxGeometry x="25.000000000000455" y="250" width="100" height="30" as="geometry"/>
                </mxCell>
                <mxCell id="67" value="&lt;span style=&quot;font-size: 12px;&quot;&gt;银行账户C&lt;/span&gt;" style="rounded=1;whiteSpace=wrap;html=1;fontSize=12;" vertex="1" parent="30">
                    <mxGeometry x="25.000000000000455" y="290" width="100" height="30" as="geometry"/>
                </mxCell>
                <mxCell id="69" style="edgeStyle=none;html=1;exitX=0;exitY=0.5;exitDx=0;exitDy=0;entryX=1;entryY=0.5;entryDx=0;entryDy=0;fontSize=10;" edge="1" parent="27" source="65" target="56">
                    <mxGeometry relative="1" as="geometry"/>
                </mxCell>
                <mxCell id="70" style="edgeStyle=none;html=1;exitX=0;exitY=0.5;exitDx=0;exitDy=0;entryX=1;entryY=0.5;entryDx=0;entryDy=0;fontSize=10;" edge="1" parent="27" source="66" target="58">
                    <mxGeometry relative="1" as="geometry"/>
                </mxCell>
                <mxCell id="71" style="edgeStyle=none;html=1;exitX=0;exitY=0.5;exitDx=0;exitDy=0;fontSize=10;" edge="1" parent="1" source="67">
                    <mxGeometry relative="1" as="geometry">
                        <mxPoint x="460" y="395" as="targetPoint"/>
                    </mxGeometry>
                </mxCell>
            </root>
        </mxGraphModel>
    </diagram>
</mxfile>